HIERARCHY
ROOT Pelvis
{
	OFFSET 0.00000 0.00000 0.00000
	CHANNELS 6 Xposition Yposition Zposition Zrotation Yrotation Xrotation 
	JOINT LHipJoint
	{
		OFFSET 0 0 0
		CHANNELS 3 Zrotation Yrotation Xrotation
		JOINT LeftUpLeg
		{
			OFFSET 1.57314 -1.85774 0.63783
			CHANNELS 3 Zrotation Yrotation Xrotation
			JOINT LeftLeg
			{
				OFFSET 2.57982 -7.08799 0.00000
				CHANNELS 3 Zrotation Yrotation Xrotation
				JOINT LeftFoot
				{
					OFFSET 2.63993 -7.25315 0.00000
					CHANNELS 3 Zrotation Yrotation Xrotation
					JOINT LeftToeBase
					{
						OFFSET 0.16864 -0.46332 2.12791
						CHANNELS 3 Zrotation Yrotation Xrotation
						End Site
						{
							OFFSET 0.00000 -0.00000 1.09718
						}
					}
				}
			}
		}
	}
	JOINT RHipJoint
	{
		OFFSET 0 0 0
		CHANNELS 3 Zrotation Yrotation Xrotation
		JOINT RightUpLeg
		{
			OFFSET -1.56006 -1.85774 0.63784
			CHANNELS 3 Zrotation Yrotation Xrotation
			JOINT RightLeg
			{
				OFFSET -2.54246 -6.98536 0.00000
				CHANNELS 3 Zrotation Yrotation Xrotation
				JOINT RightFoot
				{
					OFFSET -2.65791 -7.30256 0.00000
					CHANNELS 3 Zrotation Yrotation Xrotation
					JOINT RightToeBase
					{
						OFFSET -0.18435 -0.50650 2.16316
						CHANNELS 3 Zrotation Yrotation Xrotation
						End Site
						{
							OFFSET -0.00000 -0.00000 1.11780
						}
					}
				}
			}
		}
	}
	JOINT LowerBack
	{
		OFFSET 0 0 0
		CHANNELS 3 Zrotation Yrotation Xrotation
		JOINT Spine
		{
			OFFSET -0.00136 1.92812 -0.29638
			CHANNELS 3 Zrotation Yrotation Xrotation
			JOINT Spine1
			{
				OFFSET -0.00528 1.96223 -0.02928
				CHANNELS 3 Zrotation Yrotation Xrotation
				JOINT Neck
				{
					OFFSET 0 0 0
					CHANNELS 3 Zrotation Yrotation Xrotation
					JOINT Neck1
					{
						OFFSET -0.01015 1.75586 0.07797
						CHANNELS 3 Zrotation Yrotation Xrotation
						JOINT Head
						{
							OFFSET 0.05540 1.72452 0.04558
							CHANNELS 3 Zrotation Yrotation Xrotation
							End Site
							{
								OFFSET 0.02170 1.79958 0.00864
							}
						}
					}
				}
				JOINT LeftShoulder
				{
					OFFSET 0 0 0
					CHANNELS 3 Zrotation Yrotation Xrotation
					JOINT LeftArm
					{
						OFFSET 3.16292 1.29277 -0.65728
						CHANNELS 3 Zrotation Yrotation Xrotation
						JOINT LeftForeArm
						{
							OFFSET 5.52302 -0.00000 -0.00000
							CHANNELS 3 Zrotation Yrotation Xrotation
							JOINT LeftHand
							{
								OFFSET 3.58675 -0.00000 -0.00000
								CHANNELS 3 Zrotation Yrotation Xrotation
								JOINT LeftFingerBase
								{
									OFFSET 0 0 0
									CHANNELS 3 Zrotation Yrotation Xrotation
									JOINT LeftHandIndex1
									{
										OFFSET 0.53641 -0.00000 -0.00000
										CHANNELS 3 Zrotation Yrotation Xrotation
										End Site
										{
											OFFSET 0.43247 -0.00000 -0.00000
										}
									}
								}
								JOINT LThumb
								{
									OFFSET 0 0 0
									CHANNELS 3 Zrotation Yrotation Xrotation
									End Site
									{
										OFFSET 0.43907 -0.00000 0.43907
									}
								}
							}
						}
					}
				}
				JOINT RightShoulder
				{
					OFFSET 0 0 0
					CHANNELS 3 Zrotation Yrotation Xrotation
					JOINT RightArm
					{
						OFFSET -3.08296 1.43376 -0.52927
						CHANNELS 3 Zrotation Yrotation Xrotation
						JOINT RightForeArm
						{
							OFFSET -5.84780 -0.00000 0.00000
							CHANNELS 3 Zrotation Yrotation Xrotation
							JOINT RightHand
							{
								OFFSET -3.62717 -0.00000 -0.00000
								CHANNELS 3 Zrotation Yrotation Xrotation
								JOINT RightFingerBase
								{
									OFFSET 0 0 0
									CHANNELS 3 Zrotation Yrotation Xrotation
									JOINT RightHandIndex1
									{
										OFFSET -0.65052 -0.00000 -0.00000
										CHANNELS 3 Zrotation Yrotation Xrotation
										End Site
										{
											OFFSET -0.52446 -0.00000 -0.00000
										}
									}
								}
								JOINT RThumb
								{
									OFFSET 0 0 0
									CHANNELS 3 Zrotation Yrotation Xrotation
									End Site
									{
										OFFSET -0.53247 -0.00000 0.53247
									}
								}
							}
						}
					}
				}
			}
		}
	}
}
MOTION
Frames: 17
Frame Time: .0083333
-0.2856	18.451	9.2862	-5.1732	-0.6211	4.5246	0	0	0	-8.3971	-15.7542	-42.3637	10.3993	17.6284	60.8148	-0.0587	-7.3582	9.0389	0.3969	-4.0451	-11.2037	0	0	0	29.8805	-2.0229	34.0205	0	0	0	-4.1059	-16.0597	36.9508	-1.0164	-6.4142	17.991	7.2766	1.165	11.3645	0.2478	2.5066	0.3639	-4.2378	1.0384	-5.7019	-1.0385	-1.0269	-5.9803	1.3598	-1.2924	-3.0479	0.5598	-0.6284	0.0653	0	0	0	-83.3524	36.1083	37.5232	117.4556	-56.9507	-83.5338	0	0	-29.8839	40.6591	8.5033	7.2379	-7.125	0	0	12.212	40.8227	-1.2796	0	0	0	76.8982	0.8171	45.3676	-122.518	55.6008	-87.7455	0	0	1.2103	-46.9931	25.4848	-24.7638	7.125	0	0	-10.0405	4.4917	-10.9601
-0.2832	18.4837	9.8684	-5.167	-0.8978	4.7809	0	0	0	-8.4025	-15.9424	-41.3753	8.793	16.6727	55.3715	-0.0457	-7.2095	9.149	0.5911	-4.9222	-13.6869	0	0	0	30.3676	-0.9377	34.4973	-0.0095	-0.628	1.7258	-4.2482	-14.8965	37.5252	-2.0602	-8.9904	25.7652	7.2307	1.3685	11.0109	0.0934	2.7405	0.1796	-4.3995	1.1497	-5.6645	-0.9551	-1.0895	-5.8066	1.2984	-1.3825	-3.0748	0.5263	-0.6751	0.0285	0	0	0	-83.5174	36.4299	37.1114	118.383	-56.7256	-84.3102	0	0	-30.3005	40.5419	8.3816	7.1069	-7.125	0	0	12.0912	40.6543	-1.3175	0	0	0	76.8544	0.3024	45.9695	-122.0874	55.7276	-87.3899	0	0	1.5194	-47.5729	26.7168	-26.192	7.125	0	0	-10.0293	6.2463	-11.226
-0.2934	18.4924	10.4177	-5.5365	-0.5724	4.7013	0	0	0	-8.0097	-16.3968	-40.2316	7.2624	15.549	49.86	-0.0055	-6.8785	9.6783	0.7926	-5.6829	-15.867	0	0	0	32.1261	0.3141	32.0055	-0.2802	-3.4045	9.407	-3.6458	-12.4652	34.5939	-1.8209	-8.4827	24.19	7.523	1.3167	11.2333	0.0728	2.7324	0.071	-4.5972	1.1244	-5.8928	-0.801	-1.0631	-5.7721	1.2599	-1.3563	-3.1017	0.4898	-0.6638	0.0127	0	0	0	-83.5957	36.4213	36.759	119.0775	-56.5508	-84.8902	0	0	-30.7321	41.4574	9.5303	8.3213	-7.125	0	0	13.0751	42.2327	-0.9097	0	0	0	76.9272	-0.2031	46.3047	-121.5905	55.871	-86.9789	0	0	1.3822	-48.6965	29.3261	-29.1368	7.125	0	0	-9.8943	9.8911	-11.606
-0.3102	18.4951	10.9656	-5.7687	-0.7474	4.5063	0	0	0	-7.8068	-16.3759	-38.9307	5.9155	14.346	44.6418	0.0526	-6.0681	9.963	0.8115	-5.7485	-16.0564	0	0	0	33.4455	1.5819	31.0652	-0.6904	-5.3121	14.8008	-3.1777	-11.153	32.2039	-1.6356	-8.0619	22.9022	7.4431	1.4265	11.5823	0.1188	2.8962	0.1597	-4.5415	1.2058	-5.979	-0.947	-1.0509	-6.5504	1.2981	-1.3284	-2.6929	0.5226	-0.645	0.2669	0	0	0	-83.8798	36.0186	36.3625	119.912	-56.3333	-85.5857	0	0	-31.1905	43.9546	11.9262	11.2683	-7.125	0	0	15.8435	45.7114	0.2854	0	0	0	76.8499	-0.5883	47.0378	-121.4792	55.9027	-86.8868	0	0	2.1153	-47.7959	27.0884	-26.6624	7.125	0	0	-10.049	6.7973	-11.3341
-0.3256	18.4997	11.5099	-6.2368	-1.541	4.5343	0	0	0	-7.2928	-15.9459	-37.6554	4.732	13.0755	39.6518	0.1212	-4.7995	10.049	0.5986	-4.9529	-13.7742	0	0	0	34.754	3.4043	30.7748	-1.1392	-6.7782	19.06	-2.8377	-10.8733	30.3753	-1.517	-7.7777	22.0409	7.3928	1.7374	11.93	0.2508	3.3418	0.1262	-4.4595	1.4179	-6.1629	-0.9883	-1.0495	-6.8167	1.1515	-1.32	-2.9114	0.484	-0.6408	0.242	0	0	0	-84.2361	35.4763	36.1	120.4211	-56.1967	-86.009	0	0	-31.4592	45.8137	12.8574	12.895	-7.125	0	0	17.9136	47.2832	1.0413	0	0	0	76.8026	-1.1426	47.544	-120.9313	56.0566	-86.4327	0	0	2.4895	-47.654	26.1483	-25.8056	7.125	0	0	-10.2293	5.5966	-11.3529
-0.3426	18.5004	12.054	-6.9277	-3.056	4.7147	0	0	0	-6.561	-14.9321	-36.3943	3.765	11.8409	35.1715	0.1467	-3.611	9.4877	0.5784	-4.8702	-13.5387	0	0	0	35.3537	4.6801	30.0346	-1.6829	-8.1718	23.2372	-2.7646	-9.8377	29.9697	-1.4882	-7.707	21.8277	7.3734	2.2563	12.0577	0.4055	4.0454	0.172	-4.3982	1.7682	-6.1079	-1.03	-1.0395	-6.7314	1.1174	-1.2987	-3.7216	0.4823	-0.6303	-0.0214	0	0	0	-84.6534	34.5287	35.6915	120.5921	-56.1501	-86.1511	0	0	-31.7482	46.4051	12.5998	12.9043	-7.125	0	0	18.4582	47.0619	0.9711	0	0	0	76.794	-1.4859	48.0873	-119.8844	56.3407	-85.5627	0	0	2.3144	-48.3802	26.2308	-26.4492	7.125	0	0	-10.607	6.036	-11.8591
-0.3215	18.4362	12.6315	-6.3822	0.5497	4.0213	0	0	0	-7.7917	-17.632	-34.4184	3.0233	10.7327	31.3835	0.153	-3.3967	9.4439	0.8179	-5.7708	-16.121	0	0	0	35.5098	1.6602	28.3607	-2.3048	-9.474	27.2897	-2.6002	-9.6322	29.0365	-1.2131	-6.9868	19.6762	7.8283	0.9564	11.4081	0.2395	2.2858	0.7464	-4.5173	0.9422	-5.3259	-1.1271	-1.0091	-7.0094	1.2647	-1.2434	-4.1712	0.5443	-0.5998	-0.1125	0	0	0	-85.0004	33.2827	35.3215	120.4776	-56.1813	-86.056	0	0	-31.8354	46.1879	12.7956	12.9991	-7.125	0	0	18.2838	47.2774	1.0615	0	0	0	76.8045	-1.5077	48.4953	-118.2084	56.7687	-84.1642	0	0	2.0297	-49.8548	27.2451	-28.4924	7.125	0	0	-11.1255	7.9917	-12.7916
-0.3379	18.3972	13.1684	-6.5024	0.9213	3.9805	0	0	0	-8.0799	-17.3859	-33.3138	2.4764	9.7948	28.3149	0.1496	-2.792	8.8888	1.0982	-6.6591	-18.7094	0	0	0	35.6605	1.2499	26.9434	-3.0445	-10.7668	31.4972	-2.6018	-9.7584	29.0445	-0.949	-6.2041	17.3778	7.6695	0.8216	11.1756	0.3148	2.0586	0.9817	-4.3022	0.8559	-4.9843	-1.3747	-0.9292	-6.8702	1.5197	-1.1116	-4.8208	0.6684	-0.5301	-0.3316	0	0	0	-85.3993	32.0116	34.9964	120.3694	-56.2107	-85.9661	0	0	-31.7629	45.651	13.5371	13.4662	-7.125	0	0	17.9045	48.1425	1.4309	0	0	0	76.7726	-1.8043	48.6945	-116.7616	57.1129	-82.9516	0	0	2.0269	-50.4479	27.2279	-28.9865	7.125	0	0	-11.451	8.275	-13.2284
-0.368	18.3612	13.7018	-6.5944	1.2314	4.0303	0	0	0	-8.485	-16.6723	-32.4572	2.0804	9.0316	25.8943	0.1324	-2.5287	8.2911	1.2738	-7.1531	-20.1697	0	0	0	35.8745	1.0577	25.2487	-3.8985	-12.0241	35.8174	-2.5386	-10.4967	28.6834	-0.8671	-5.9373	16.6027	7.2585	0.7534	11.0068	0.3973	1.9028	1.0773	-3.9546	0.7975	-4.8248	-1.2175	-0.9083	-6.1083	1.3753	-1.0956	-5.9989	0.6072	-0.5275	-0.8176	0	0	0	-85.5148	30.891	34.9995	120.5131	-56.1717	-86.0855	0	0	-31.5685	44.5033	13.0413	12.5043	-7.125	0	0	16.6114	47.2631	0.9529	0	0	0	76.9207	-2.4544	48.7547	-115.3073	57.436	-81.7281	0	0	1.736	-49.23	25.2428	-26.3159	7.125	0	0	-11.347	5.229	-12.5732
-0.3818	18.3259	14.24	-6.3838	1.268	3.9413	0	0	0	-9.4113	-15.7415	-31.4155	1.8012	8.4391	24.0559	0.1533	-1.3915	8.0425	1.212	-6.9837	-19.6671	0	0	0	35.4435	0.8877	23.354	-4.9434	-13.3198	40.5778	-2.5792	-10.9694	28.9273	-0.9019	-6.0522	16.9359	6.7692	0.7333	11.1487	0.3094	1.82	1.1545	-3.7631	0.7668	-4.8442	-1.1541	-0.883	-5.5766	1.4211	-1.0617	-6.8515	0.6199	-0.5141	-1.1699	0	0	0	-85.4851	29.6462	35.1438	120.5631	-56.158	-86.127	0	0	-31.3895	42.5388	10.4485	9.4477	-7.125	0	0	14.2208	43.5652	-0.5146	0	0	0	77.1572	-3.1377	48.805	-113.1124	57.8821	-79.8736	0	0	0.8357	-47.7221	24.2425	-24.3036	7.125	0	0	-10.7758	3.2907	-11.5785
-0.3827	18.2754	14.777	-6.1351	0.861	3.7236	0	0	0	-10.5322	-14.3882	-30.1908	1.5898	7.9535	22.573	0.1652	-0.4488	7.8523	1.2421	-7.0668	-19.9134	0	0	0	34.6798	0.9125	21.5601	-6.149	-14.5712	45.5768	-2.6918	-11.6473	29.5869	-0.9032	-6.0567	16.949	6.3691	0.8401	11.529	0.1478	1.9303	1.1912	-3.7352	0.8223	-5.0121	-1.2255	-0.8268	-5.5536	1.6709	-0.9726	-6.8955	0.7104	-0.4703	-1.1877	0	0	0	-85.303	28.3095	35.4258	120.4889	-56.1782	-86.0654	0	0	-31.453	41.5626	9.6551	8.4585	-7.125	0	0	13.1895	42.4065	-0.8603	0	0	0	77.3699	-3.8785	48.6166	-110.4059	58.3666	-77.5751	0	0	0.5851	-47.1112	24.4204	-23.9928	7.125	0	0	-10.386	3.2408	-11.1369
-0.3899	18.2071	15.3157	-5.8131	0.4543	3.4032	0	0	0	-11.7531	-12.8729	-28.8738	1.436	7.5766	21.4352	0.1938	0.106	8.2767	1.3473	-7.3485	-20.7521	0	0	0	33.8442	0.9001	19.7484	-7.4852	-15.7273	50.6866	-2.7042	-12.5353	29.7018	-0.8625	-5.9219	16.558	5.7787	0.9503	11.9805	-0.0132	2.0251	1.1133	-3.603	0.8664	-5.3498	-1.1053	-0.7522	-5.2187	1.7705	-0.8778	-6.8258	0.7234	-0.4281	-1.2228	0	0	0	-85.0918	27.2026	35.7852	120.4453	-56.1901	-86.0292	0	0	-31.5584	41.8826	10.3568	9.1576	-7.125	0	0	13.5875	43.3504	-0.5642	0	0	0	77.6115	-4.7955	48.3101	-107.3181	58.8359	-74.9393	0	0	0.7637	-47.2722	25.042	-24.6201	7.125	0	0	-10.3134	4.0752	-11.1979
-0.3954	18.1137	15.8469	-5.2383	0.5008	3.0081	0	0	0	-13.3512	-11.3819	-27.8723	1.3893	7.4574	21.0777	0.2372	-0.5328	9.4087	1.0282	-6.45	-18.0958	0	0	0	32.6847	0.4054	17.7036	-8.9296	-16.7622	55.8463	-2.6369	-13.1121	29.3714	-1.0664	-6.565	18.4329	5.0571	0.8878	12.4742	-0.2259	1.8626	1.1033	-3.4106	0.7905	-5.6676	-1.0137	-0.6696	-4.7477	1.8088	-0.7696	-7.0918	0.7252	-0.3793	-1.3869	0	0	0	-84.8161	25.9028	36.2408	120.5824	-56.1527	-86.1431	0	0	-31.7904	42.1917	11.1252	9.9212	-7.125	0	0	13.9934	44.3821	-0.2178	0	0	0	77.8296	-5.6605	48.0359	-104.0538	59.2404	-72.1399	0	0	0.4339	-47.3893	25.3769	-24.9804	7.125	0	0	-10.29	4.5372	-11.2486
-0.4011	18.0132	16.389	-4.4799	0.6861	2.6639	0	0	0	-15.1598	-9.9198	-27.3422	1.491	7.7139	21.8483	0.1348	-3.9748	9.5485	0.6769	-5.261	-14.6544	0	0	0	31.0997	-0.327	15.5901	-10.4245	-17.6418	60.8981	-2.5141	-14.1183	28.7894	-1.3362	-7.3194	20.6652	4.0751	0.7975	12.7095	-0.4236	1.604	1.1692	-3.027	0.6832	-5.7736	-0.8408	-0.5698	-4.5728	1.6905	-0.6496	-7.0337	0.6603	-0.3229	-1.4	0	0	0	-84.514	24.4536	36.7884	121.1043	-56.0084	-86.5761	0	0	-32.4602	41.7363	11.2075	9.8368	-7.125	0	0	13.5685	44.4159	-0.1994	0	0	0	77.9671	-6.4222	47.7468	-100.7552	59.5584	-69.3005	0	0	-0.0518	-47.4609	25.5757	-25.1959	7.125	0	0	-10.2768	4.8121	-11.2791
-0.4104	17.9212	16.9338	-3.9706	0.8057	2.2104	0	0	0	-16.4994	-8.6044	-26.8409	1.7525	8.3304	23.7221	-0.0873	-7.2138	7.9191	0.314	-3.6023	-9.9605	0	0	0	29.71	-1.0834	13.6031	-11.922	-18.3575	65.7414	-2.3054	-15.6719	27.8449	-1.3122	-7.2559	20.4758	3.2116	0.7192	13.0716	-0.5106	1.3846	1.2307	-2.6013	0.5926	-5.9456	-0.9025	-0.4831	-4.5347	1.8759	-0.5288	-6.6453	0.7263	-0.2626	-1.2854	0	0	0	-84.297	22.8952	37.4199	121.6413	-55.8565	-87.021	0	0	-33.0621	41.686	11.4025	9.985	-7.125	0	0	13.547	44.6564	-0.1171	0	0	0	78.0184	-7.1022	47.4644	-97.2262	59.8018	-66.2539	0	0	-0.3744	-48.1493	26.2501	-26.28	7.125	0	0	-10.4746	5.9507	-11.6922
-0.417	17.8117	17.4673	-3.9396	1.4832	1.6834	0	0	0	-17.0624	-8.2868	-25.9969	2.1755	9.2224	26.4935	-0.2507	-8.9525	4.8202	0.1285	-2.3103	-6.364	0	0	0	28.891	-2.311	11.3803	-13.4439	-18.9366	70.4986	-1.9255	-17.2353	26.0009	-1.3994	-7.4834	21.1556	2.9985	0.3863	13.4705	-0.4844	0.9257	1.3523	-2.3776	0.3726	-6.0728	-0.9939	-0.4124	-4.6999	2.1087	-0.429	-6.1045	0.8104	-0.2107	-1.09	0	0	0	-84.0546	21.0158	38.1033	122.1536	-55.7082	-87.4446	0	0	-33.7237	41.7185	11.8693	10.391	-7.125	0	0	13.6423	45.2555	0.0877	0	0	0	78.1565	-7.6618	47.2049	-93.4624	59.9547	-62.9981	0	0	-0.4234	-48.678	26.5672	-26.9623	7.125	0	0	-10.6772	6.5874	-12.0314
-0.414	17.6797	18.0097	-3.7385	4.0027	1.2243	0	0	0	-17.7595	-9.9066	-24.6046	2.7198	10.227	29.7149	-0.3207	-10.1497	1.751	0.001	-0.2083	-0.5722	0	0	0	27.7354	-5.3077	8.6521	-14.9134	-19.368	74.9757	-1.4652	-18.3142	23.5645	-1.3605	-7.3828	20.8546	3.0506	-0.5982	13.4191	-0.4811	-0.3723	1.5706	-2.1648	-0.2574	-5.8923	-1.1505	-0.3447	-4.9367	2.3562	-0.3293	-5.6861	0.9112	-0.1568	-0.9225	0	0	0	-83.8414	18.986	38.8699	122.868	-55.496	-88.0341	0	0	-34.201	40.7065	10.7202	9.0921	-7.125	0	0	12.5264	43.6421	-0.4269	0	0	0	78.4207	-8.2873	46.6605	-89.8488	59.9999	-59.8691	0	0	0.2023	-48.6748	26.0232	-26.5173	7.125	0	0	-10.8263	5.923	-12.0937
